<svg width="48" height="45" viewBox="0 0 48 45" fill="none" xmlns="http://www.w3.org/2000/svg">
<path d="M33.3789 29.0866L40.0682 35.4103L37.8583 37.5L31.1705 31.1748C28.6821 33.061 25.587 34.0869 22.3977 34.0827C14.6386 34.0827 8.34131 28.1281 8.34131 20.7913C8.34131 13.4545 14.6386 7.5 22.3977 7.5C30.1569 7.5 36.4542 13.4545 36.4542 20.7913C36.4587 23.807 35.3737 26.7336 33.3789 29.0866ZM30.2459 27.9908C32.2281 26.0634 33.335 23.4798 33.3305 20.7913C33.3305 15.079 28.4373 10.4536 22.3977 10.4536C16.3566 10.4536 11.465 15.079 11.465 20.7913C11.465 26.5022 16.3566 31.129 22.3977 31.129C25.2409 31.1333 27.9733 30.0866 30.0117 28.2123L30.2459 27.9908Z" fill="#838383"/>
</svg>
